<svg width="500" height="255" viewBox="0 0 500 255" xmlns="http://www.w3.org/2000/svg" xmlns:xlink="http://www.w3.org/1999/xlink" id="svg2" xml:space="preserve" overflow="hidden"><g id="layer1" transform="translate(-125 -404.862)"><path d="M248.599 576.716C216.952 592.133 202.34 599.047 163.572 616.61 182.857 595.406 203.018 573.055 222 550.974L144.295 508.465 227.801 522.395 209.53 462.655 252.514 501.568 307.464 424.226 289.293 528.49 344.957 525.213 294.343 556.316 327 600.815 275.422 588.107 253.875 634.647 248.599 576.716Z" id="path2480" stroke="#1B1B1B" stroke-miterlimit="6" fill="#9C9C9C"/><path d="M509 626.239C507.625 625.258 505.937 623.759 505.248 622.909 502.305 619.274 497.854 608.411 493.965 595.362 491.669 587.663 489.247 580.788 488.584 580.087 487.619 579.067 485.581 580.456 478.438 587.001 468.75 595.876 459.913 602.076 454.311 603.925 452.362 604.569 448.46 604.873 445.643 604.603 440.958 604.153 440.107 603.651 435.72 598.753 428.89 591.126 425 582.908 425 576.104 425 564.204 429.828 559.954 454.353 550.272 469.433 544.318 472.478 541.165 465.402 538.83 463.398 538.169 451.551 537.295 438.652 536.858 414.378 536.035 409.002 535.135 403.057 530.903 398.984 528.003 397 523.956 397 518.547 397 506.334 408.053 504.266 443.399 509.867 464.175 513.159 473.583 513.618 476.503 511.483 478.285 510.18 478.297 509.964 476.719 507.555 475.8 506.153 468.259 499.723 459.961 493.266 443.715 480.624 438.324 475.228 434.925 468.206 430.533 459.134 434.315 450.267 445.069 444.42 449.465 442.03 452.01 441.398 458.635 441.05 466.137 440.656 467.208 440.851 472.036 443.478 478.952 447.242 482.286 451.352 489.5 465.005 492.8 471.251 495.95 476.361 496.5 476.361 497.05 476.361 500.355 470.559 503.845 463.468 511.14 448.646 517.01 441.743 523.897 439.888 529.274 438.44 534.251 439.433 537.166 442.535 540.509 446.092 540.9 457.936 538.104 470.86 531.036 503.53 530.694 509.916 535.875 512.489 539.82 514.448 543.69 512.215 552.915 502.656 562.678 492.538 569.902 488.19 575.192 489.248 580.604 490.331 586.718 494.645 591.31 500.624 597.622 508.841 599.999 513.999 599.999 519.475 599.999 523.615 599.547 524.6 596.177 527.806 591.765 532.004 585.451 534.301 572.502 536.419 553.763 539.484 550.864 540.149 548.734 541.874 546.697 543.523 546.648 543.841 548.022 546.462 548.834 548.011 555.178 555.194 562.121 562.423 578.927 579.925 582.762 586.552 579.61 592.645 578.04 595.681 573.767 597.861 569.384 597.861 565.923 597.861 558.718 595.219 546.998 589.653 528.418 580.828 526.865 581.308 534.999 593.363 545.684 609.197 547.264 615.797 541.701 621.359 537.537 625.522 532.936 626.892 520.998 627.521 512.954 627.947 511.117 627.751 509 626.239Z" id="path2478" stroke="#1B1B1B" stroke-miterlimit="6" fill="#9C9C9C"/></g></svg>